<svg t="1629970995397" class="icon" viewBox="0 0 1024 1024" version="1.1" xmlns="http://www.w3.org/2000/svg" p-id="6284" width="200" height="200"><path d="M993.621971 209.223994l-460.799987-204.799994a51.199999 51.199999 0 0 0-41.594998 0l-460.799987 204.799994a51.199999 51.199999 0 0 0 0 93.592997l460.799987 204.799994a51.383998 51.383998 0 0 0 41.594998 0l460.799987-204.799994a51.199999 51.199999 0 0 0 0-93.592997z" fill="#1296db" p-id="6285"></path><path d="M512.034985 767.999978a51.199999 51.199999 0 0 1-20.786999-4.403l-460.799987-204.799994a51.209998 51.209998 0 0 1 41.594999-93.593998l439.991987 195.563995 439.991987-195.542995a51.209998 51.209998 0 0 1 41.594999 93.592998l-460.799987 204.799994A51.199999 51.199999 0 0 1 512.034985 767.999978z" fill="#1296db" p-id="6286"></path><path d="M512.034985 1023.99997a51.199999 51.199999 0 0 1-20.786999-4.403l-460.799987-204.799994a51.209998 51.209998 0 0 1 41.594999-93.593997l439.991987 195.563994 439.991987-195.542994a51.209998 51.209998 0 0 1 41.594999 93.592997l-460.799987 204.799994a51.199999 51.199999 0 0 1-20.786999 4.383z" fill="#1296db" p-id="6287"></path></svg>