<svg t="1630327436749" class="icon" viewBox="0 0 1024 1024" version="1.1" xmlns="http://www.w3.org/2000/svg" p-id="3577" width="200" height="200"><path d="M474.208 1021.952a37.888 37.888 0 0 0-12.288-1.834667 534.144 534.144 0 0 1-58.368-8.405333 730.453333 730.453333 0 0 0-22.528-5.333333c-40.96-9.386667-96.64-32.768-136.789333-57.557334-52.821333-32.768-104.874667-79.445333-140.885334-127.36C64.010667 769.621333 32.096 705.109333 16.48 646.144c-6.741333-25.6-12.288-53.845333-12.288-62.677333 0-4.266667-1.024-8.405333-2.048-9.002667-2.858667-1.621333-2.858667-123.306667 0-124.928 1.024-0.597333 2.048-4.693333 2.048-9.002667 0-8.832 5.546667-37.077333 12.288-62.72 19.285333-72.661333 63.317333-153.6 114.090667-208.64a731.221333 731.221333 0 0 1 76.202666-68.608C259.594667 60.416 333.92 26.410667 398.432 13.312a534.912 534.912 0 0 1 113.664-11.904c39.765333-0.170667 78.464 4.138667 115.712 12.714667 4.522667 1.024 14.165333 3.285333 21.504 4.906666 7.381333 1.664 15.189333 3.712 17.408 4.522667 93.610667 34.218667 149.504 68.608 207.701333 127.786667 43.818667 44.672 70.826667 81.92 93.568 129.237333 14.122667 29.269333 15.146667 31.744 23.978667 54.272 10.24 26.453333 10.026667 26.026667 11.648 33.792 1.024 3.882667 3.072 13.738667 4.949333 21.504 3.669333 15.786667 8.576 44.458667 12.074667 69.632 2.645333 21.077333 2.645333 83.370667 0 104.448a910.08 910.08 0 0 1-12.074667 69.632c-1.877333 7.978667-3.925333 17.621333-4.949333 21.504-1.621333 7.594667-15.957333 46.08-22.912 61.44-14.122667 31.146667-19.072 40.96-30.506667 59.818667-19.669333 32.938667-43.861333 63.488-75.776 96-53.888 54.698667-105.685333 88.106667-185.173333 119.210666-24.576 9.642667-28.245333 10.666667-69.632 19.882667-7.168 1.621333-33.152 5.717333-60.416 9.386667-15.786667 2.090667-80.64 2.901333-84.992 0.853333z" fill="#45BB35" p-id="3578"></path><path d="M754.186667 760.618667c-2.474667-1.621333-15.573333-9.386667-29.098667-16.981334l-24.746667-14.122666-14.762666 3.669333c-38.485333 9.216-72.533333 9.216-109.354667 0-28.288-7.381333-63.701333-28.458667-84.778667-50.602667-39.338667-41.386667-51.626667-92.757333-34.432-143.530666 9.813333-29.098667 32.170667-57.6 61.013334-78.250667 18.474667-13.098667 35.669333-21.077333 62.72-29.098667 18.389333-5.546667 23.509333-6.144 50.133333-6.314666 30.122667-0.213333 40.96 1.408 64.512 9.216 35.84 11.861333 60.842667 27.008 83.2 50.176 18.773333 19.2 27.392 33.578667 34.56 56.917333 8.192 26.837333 8.832 56.533333 1.28 78.848-7.594667 22.528-23.381333 44.458667-48.768 68.394667-20.48 19.242667-22.144 21.504-20.48 26.026666 1.237333 2.645333 3.285333 9.002667 4.693333 14.122667 1.237333 5.12 4.309333 14.506667 6.357334 21.333333 2.048 6.528 3.498667 12.245333 3.072 12.672-0.426667 0.426667-2.645333-0.64-5.12-2.474666zM589.109333 558.933333c9.642667-5.930667 13.098667-11.648 13.098667-21.504 0-7.381333-1.194667-9.6-8.192-15.957333-6.954667-6.144-9.6-7.381333-17.408-7.381333-11.264 0-18.005333 5.546667-21.290667 17.408-3.072 11.477333 0.853333 21.333333 11.093334 27.050666 10.24 5.717333 14.08 5.930667 22.698666 0.426667z m119.594667 1.237334c8.192-4.266667 15.189333-14.762667 14.933333-22.741334-0.170667-9.002667-8.96-20.053333-18.005333-22.741333-15.530667-4.906667-29.696 6.144-29.696 22.954667 0 9.642667 3.925333 16.213333 13.141333 21.717333 7.552 4.693333 11.861333 4.906667 19.626667 0.810667z" fill="#FFFFFF" p-id="3579"></path><path d="M268.213333 655.957333c3.669333-6.741333 10.410667-24.576 15.957334-42.581333a102.826667 102.826667 0 0 1 4.906666-13.738667c3.498667-6.528 2.048-8.96-11.050666-18.432-20.693333-15.36-44.629333-43.178667-55.893334-65.536a160.896 160.896 0 0 1-7.594666-126.549333c29.866667-83.541333 132.693333-141.098667 231.424-129.834667 12.885333 1.621333 26.837333 3.669333 30.933333 4.906667 4.096 1.024 9.813333 2.048 12.288 2.048 7.168 0 44.245333 15.36 60.8 25.002667 41.6 24.32 75.392 63.872 86.613333 101.376 2.474667 7.978667 4.522667 15.146667 4.522667 15.786666 0 0.597333-5.290667 1.194667-11.648 1.194667-30.72 0.213333-70.442667 9.386667-98.133333 22.954667-16.341333 7.978667-42.794667 29.056-55.253334 43.818666-33.621333 40.32-46.933333 100.736-32.597333 147.456 1.28 3.882667 0.426667 4.693333-6.954667 5.930667-17.194667 2.858667-59.178667-1.450667-81.28-8.192l-8.405333-2.645333-36.693333 18.218666c-20.053333 10.026667-37.461333 19.242667-38.485334 20.266667-3.285333 3.285333-5.546667 2.261333-3.456-1.450667z m100.949334-256c12.885333-12.672 12.501333-30.08-1.237334-43.392-6.144-5.973333-8.192-6.784-18.432-6.784-14.336-0.170667-24.362667 6.570667-28.032 18.645334-9.429333 31.573333 24.576 54.058667 47.701334 31.573333z m153.386666 0.213334c13.098667-12.672 13.098667-27.861333 0.426667-41.984-6.954667-7.552-7.808-7.978667-19.669333-7.978667-14.762667 0-24.149333 5.973333-28.074667 17.621333-3.456 10.24-1.408 24.576 4.096 30.506667 12.928 13.738667 30.293333 14.506667 43.221333 1.834667z" fill="#FFFFFF" p-id="3580"></path></svg>